<svg xmlns="http://www.w3.org/2000/svg" version="1.1" viewBox="18.82 534.33 4057.76 549.57">
<g id="#11ae62ff">
<path fill="#11ae62" opacity="1.00" d=" M 1112.09 534.86 C 1163.93 532.62 1218.14 536.85 1264.97 561.05 C 1295.32 576.75 1319.87 602.78 1334.50 633.59 C 1356.25 679.34 1359.89 731.08 1359.60 781.00 C 1359.34 844.38 1359.46 907.79 1363.59 971.06 C 1365.01 1001.00 1367.12 1030.90 1370.52 1060.68 C 1324.50 1060.83 1278.48 1060.73 1232.46 1060.73 C 1227.54 1020.73 1221.55 980.76 1220.86 940.39 C 1214.69 940.36 1208.53 940.36 1202.37 940.39 C 1183.75 996.81 1139.73 1045.86 1082.63 1064.63 C 1058.36 1072.73 1032.47 1075.19 1007.00 1073.99 C 974.27 1072.16 940.88 1062.03 916.06 1039.89 C 890.71 1017.81 875.97 985.27 873.01 952.05 C 870.00 919.01 872.93 883.59 890.86 854.82 C 909.16 827.11 937.33 806.88 968.13 795.11 C 1013.21 776.29 1062.33 772.23 1109.98 763.88 C 1131.45 760.53 1153.23 758.29 1174.16 752.16 C 1187.37 748.18 1200.49 739.37 1204.30 725.39 C 1209.60 704.97 1203.29 680.90 1186.25 667.73 C 1172.90 657.25 1155.63 653.66 1139.02 653.04 C 1109.64 651.67 1078.58 659.25 1056.37 679.35 C 1039.68 694.15 1028.82 714.68 1023.62 736.20 C 977.60 723.67 931.81 710.26 885.86 697.44 C 893.24 668.96 906.12 641.66 924.78 618.81 C 945.51 592.97 972.49 572.27 1002.70 558.71 C 1037.00 543.20 1074.71 536.74 1112.09 534.86 M 1072.78 848.72 C 1056.57 853.78 1039.20 860.80 1029.95 875.96 C 1022.47 889.62 1022.07 906.36 1025.71 921.23 C 1030.32 938.36 1044.06 952.15 1060.42 958.51 C 1074.80 964.41 1090.82 964.33 1105.95 961.99 C 1138.49 956.15 1167.68 936.71 1188.16 911.11 C 1197.52 899.60 1204.93 886.31 1209.08 872.06 C 1208.84 853.33 1208.01 834.60 1207.54 815.87 C 1164.72 834.49 1117.08 835.29 1072.78 848.72 Z"/>
<path fill="#11ae62" opacity="1.00" d=" M 768.97 537.04 C 790.38 535.31 812.21 535.84 833.12 541.15 C 831.23 596.80 829.19 652.45 827.23 708.10 C 813.69 701.60 798.98 697.72 784.05 696.27 C 756.46 692.72 727.29 694.60 701.93 706.83 C 683.82 715.17 668.69 729.39 658.51 746.46 C 643.39 772.38 636.82 802.41 633.96 832.00 C 633.94 908.24 633.97 984.49 633.95 1060.73 C 581.53 1060.78 529.10 1060.73 476.68 1060.76 C 476.65 889.76 476.64 718.77 476.69 547.78 C 519.37 547.71 562.06 547.75 604.74 547.76 C 605.78 606.42 606.78 665.08 607.83 723.74 C 613.98 723.76 620.13 723.74 626.29 723.75 C 629.98 688.35 635.83 652.68 649.62 619.65 C 660.32 594.25 677.50 570.70 701.70 556.75 C 722.09 544.78 745.59 539.17 768.97 537.04 Z"/>
<path fill="#11ae62" opacity="1.00" d=" M 2151.18 585.16 C 2197.79 554.38 2254.65 542.02 2310.02 544.11 C 2365.06 545.10 2421.70 561.37 2463.29 598.71 C 2489.88 622.34 2509.16 653.39 2521.42 686.61 C 2540.19 736.69 2544.13 791.15 2539.81 844.12 C 2422.92 845.24 2306.03 846.30 2189.14 847.43 C 2191.96 880.07 2200.73 914.54 2224.72 938.28 C 2246.34 960.34 2277.38 971.52 2308.01 971.22 C 2330.85 971.64 2354.93 967.64 2373.56 953.52 C 2392.37 939.16 2402.25 916.32 2407.45 893.83 C 2453.18 903.00 2498.86 912.44 2544.55 921.78 C 2538.68 952.11 2527.19 981.75 2508.54 1006.56 C 2488.65 1032.84 2460.53 1052.08 2430.00 1064.01 C 2393.29 1078.83 2353.37 1083.81 2314.01 1083.85 C 2277.33 1084.16 2240.39 1080.39 2205.18 1069.81 C 2172.56 1059.87 2141.64 1043.59 2116.09 1020.88 C 2070.97 981.07 2046.05 922.21 2040.45 863.00 C 2033.44 791.70 2044.22 716.27 2082.81 654.80 C 2100.33 627.10 2123.58 602.92 2151.18 585.16 M 2237.97 684.90 C 2213.37 704.49 2199.49 734.63 2193.35 764.90 C 2261.44 764.22 2329.52 763.62 2397.61 762.97 C 2396.82 737.53 2389.00 711.46 2371.69 692.31 C 2337.92 656.00 2275.98 654.12 2237.97 684.90 Z"/>
<path fill="#11ae62" opacity="1.00" d=" M 3230.02 544.92 C 3272.91 542.33 3316.53 544.47 3358.12 555.90 C 3388.65 564.44 3418.20 577.92 3442.73 598.25 C 3470.23 620.14 3490.11 651.45 3497.51 685.88 C 3455.36 699.24 3413.34 712.98 3371.24 726.48 C 3367.62 704.66 3352.91 686.04 3334.36 674.63 C 3313.75 661.65 3289.06 656.84 3264.99 656.55 C 3247.16 656.36 3228.90 657.70 3212.14 664.21 C 3201.96 668.30 3191.81 674.52 3186.50 684.47 C 3179.88 696.55 3182.50 712.91 3193.04 721.94 C 3208.94 735.41 3229.82 740.51 3249.61 745.35 C 3288.11 755.07 3327.29 761.86 3365.60 772.39 C 3394.92 779.83 3423.55 790.72 3449.44 806.51 C 3474.96 822.72 3496.12 847.42 3504.00 877.00 C 3509.56 897.80 3510.40 919.73 3507.80 941.04 C 3504.08 971.03 3490.41 999.66 3469.25 1021.26 C 3444.99 1046.37 3412.49 1061.88 3379.22 1071.21 C 3341.44 1081.52 3302.02 1084.45 3262.99 1083.79 C 3224.55 1083.04 3185.88 1078.54 3149.13 1066.88 C 3118.33 1057.04 3088.95 1041.06 3066.33 1017.67 C 3046.92 997.87 3033.79 972.25 3028.24 945.14 C 3067.73 929.23 3107.26 913.40 3146.76 897.52 C 3153.03 914.71 3164.85 929.57 3179.00 941.01 C 3206.93 962.87 3243.08 971.23 3278.01 971.21 C 3302.23 971.31 3328.23 969.70 3349.13 956.12 C 3362.31 947.88 3368.15 930.08 3362.32 915.65 C 3358.89 906.85 3350.39 901.66 3342.42 897.47 C 3324.89 888.65 3305.66 884.11 3286.81 879.12 C 3239.17 867.57 3190.28 859.80 3144.59 841.43 C 3125.98 833.59 3107.42 824.97 3091.22 812.78 C 3067.47 794.90 3047.97 769.74 3041.79 740.19 C 3034.25 704.77 3037.24 666.04 3055.00 634.00 C 3070.08 606.85 3094.70 585.96 3122.27 572.21 C 3155.54 555.04 3192.91 547.53 3230.02 544.92 Z"/>
<path fill="#11ae62" opacity="1.00" d=" M 3791.12 546.39 C 3851.84 539.50 3916.97 546.15 3969.59 579.41 C 4012.35 605.72 4041.95 649.60 4057.05 696.90 C 4072.81 744.15 4075.81 794.73 4071.85 844.12 C 3954.96 845.24 3838.07 846.30 3721.17 847.43 C 3724.03 880.06 3732.74 914.53 3756.75 938.26 C 3778.58 960.58 3810.06 971.73 3841.00 971.22 C 3863.75 971.56 3887.70 967.34 3906.12 953.12 C 3924.58 938.71 3934.35 916.13 3939.47 893.84 C 3985.20 902.98 4030.88 912.44 4076.58 921.77 C 4070.49 953.27 4058.34 984.07 4038.36 1009.40 C 4017.65 1035.52 3988.74 1054.25 3957.64 1065.70 C 3925.92 1077.86 3891.84 1082.71 3858.03 1083.68 C 3798.67 1085.39 3736.88 1077.51 3684.80 1047.19 C 3635.22 1019.54 3599.04 971.01 3583.13 916.87 C 3571.53 878.47 3568.89 837.84 3571.29 797.96 C 3575.07 737.27 3594.17 675.86 3633.84 628.87 C 3672.75 582.02 3731.10 553.57 3791.12 546.39 M 3772.21 683.20 C 3746.28 702.66 3731.67 733.75 3725.39 764.90 C 3793.48 764.22 3861.56 763.62 3929.64 762.97 C 3928.88 738.68 3921.76 713.92 3906.07 694.99 C 3873.71 656.88 3811.21 653.44 3772.21 683.20 Z"/>
<path fill="#11ae62" opacity="1.00" d=" M 2845.74 574.74 C 2872.11 554.24 2906.23 546.82 2939.02 545.91 C 2955.94 545.37 2973.01 546.61 2989.48 550.76 C 2987.54 606.42 2985.52 662.08 2983.57 717.74 C 2965.40 708.76 2945.10 705.69 2925.07 704.47 C 2890.48 702.60 2853.05 711.65 2828.75 737.74 C 2803.13 765.22 2794.58 803.71 2790.35 839.92 C 2790.12 916.73 2790.34 993.55 2790.24 1070.36 C 2737.83 1070.39 2685.42 1070.37 2633.02 1070.37 C 2632.98 899.37 2632.99 728.38 2633.01 557.38 C 2675.68 557.38 2718.36 557.36 2761.04 557.39 C 2762.16 616.05 2763.08 674.71 2764.17 733.38 C 2770.33 733.36 2776.50 733.42 2782.68 733.34 C 2785.37 705.81 2789.75 678.33 2797.81 651.83 C 2806.65 622.64 2821.28 593.86 2845.74 574.74 Z"/>
<path fill="#11ae62" opacity="1.00" d=" M 18.90 550.26 C 153.62 550.07 288.34 550.02 423.06 550.24 C 423.19 591.27 423.13 632.31 423.09 673.34 C 377.28 673.58 331.43 673.02 285.64 673.62 C 285.00 677.04 285.16 680.53 285.18 683.99 C 285.20 746.66 285.18 809.33 285.20 872.00 C 285.64 889.15 288.56 907.48 300.15 920.88 C 311.59 934.36 329.85 939.50 346.96 939.90 C 372.31 940.28 397.68 939.71 423.03 940.14 C 423.24 981.13 423.08 1022.12 423.11 1063.11 C 400.74 1063.41 378.37 1063.18 356.00 1063.25 C 319.36 1063.68 282.04 1059.17 248.00 1045.00 C 217.12 1032.83 189.52 1011.59 171.31 983.69 C 150.71 951.94 142.35 913.51 142.66 876.00 C 142.38 808.46 142.88 740.90 142.43 673.36 C 101.31 673.40 60.17 673.28 19.04 673.48 C 18.63 632.42 18.92 591.33 18.90 550.26 Z"/>
<path fill="#11ae62" opacity="1.00" d=" M 1377.27 550.36 C 1425.43 550.01 1473.62 550.22 1521.77 550.42 C 1539.94 658.16 1558.09 765.91 1576.43 873.63 C 1576.82 876.06 1577.34 878.50 1578.10 880.87 C 1580.32 872.70 1581.35 864.27 1583.02 855.99 C 1601.41 754.13 1619.68 652.24 1638.05 550.38 C 1683.51 549.99 1729.02 550.22 1774.48 550.42 C 1793.27 655.66 1811.92 760.94 1830.72 866.18 C 1831.71 870.40 1831.81 874.88 1833.77 878.83 C 1836.66 870.49 1837.27 861.62 1838.95 853.01 C 1856.47 752.17 1873.35 651.19 1890.93 550.37 C 1937.56 550.08 1984.21 549.97 2030.85 550.34 C 1997.88 695.82 1964.75 841.30 1931.71 986.78 C 1926.07 1012.18 1919.93 1037.47 1914.71 1062.96 C 1861.49 1063.44 1808.21 1063.45 1754.99 1062.97 C 1738.29 978.77 1721.06 894.66 1703.48 810.65 C 1701.75 815.29 1701.16 820.23 1700.15 825.05 C 1684.30 904.43 1668.56 983.86 1652.82 1063.24 C 1599.71 1063.05 1546.58 1063.65 1493.48 1062.97 C 1455.18 892.00 1416.03 721.22 1377.27 550.36 Z"/>
</g>
</svg>